<?xml version="1.0" standalone="no"?>
<!DOCTYPE svg PUBLIC "-//W3C//DTD SVG 20010904//EN"
 "http://www.w3.org/TR/2001/REC-SVG-20010904/DTD/svg10.dtd">
<svg version="1.0" xmlns="http://www.w3.org/2000/svg"
 width="1024.000000pt" height="768.000000pt" viewBox="0 0 1024.000000 768.000000"
 preserveAspectRatio="xMidYMid meet">

<g transform="translate(0.000000,768.000000) scale(0.100000,-0.100000)"
fill="#000000" stroke="none">
<path d="M4940 5409 c-513 -58 -884 -305 -955 -634 -35 -159 -37 -183 -32
-310 5 -103 11 -147 32 -210 75 -226 194 -354 440 -474 167 -82 319 -132 615
-205 301 -74 399 -115 492 -206 63 -62 83 -111 72 -182 -21 -138 -123 -231
-304 -279 -74 -20 -109 -23 -270 -23 -319 1 -544 55 -740 179 -56 36 -150 124
-185 176 -15 21 -34 39 -41 39 -28 0 -44 -215 -44 -597 l0 -302 38 -7 c20 -3
129 -24 242 -45 113 -21 270 -45 350 -53 191 -20 540 -30 560 -17 11 8 3 11
-35 12 -27 1 24 6 115 10 171 9 302 33 505 93 154 46 307 131 365 203 78 97
143 224 186 368 24 80 27 106 28 245 1 175 -13 254 -69 376 -47 104 -103 181
-192 264 -168 158 -349 242 -733 340 -230 58 -400 107 -468 135 -230 94 -312
222 -232 362 37 65 100 113 193 150 69 27 80 28 237 28 154 0 173 -2 285 -32
182 -48 332 -108 574 -227 52 -25 94 -46 95 -46 1 0 3 44 4 98 8 283 42 623
67 673 15 28 5 49 -25 49 -13 0 -13 -2 0 -10 13 -8 13 -10 0 -14 -83 -28 -271
-34 -402 -11 -49 8 -127 22 -175 30 -212 36 -563 29 -771 -16 -52 -11 -96 -18
-99 -16 -6 7 107 31 227 50 219 35 487 29 750 -18 132 -23 174 -26 280 -22
203 8 191 22 -18 23 -169 0 -202 3 -345 32 -148 30 -172 32 -350 31 -106 -1
-226 -5 -267 -10z m-310 -99 c-8 -5 -22 -10 -30 -10 -13 0 -13 1 0 10 8 5 22
10 30 10 13 0 13 -1 0 -10z m-160 -54 c0 -2 -7 -7 -16 -10 -8 -3 -12 -2 -9 4
6 10 25 14 25 6z m-65 -36 c-3 -5 -11 -10 -16 -10 -6 0 -7 5 -4 10 3 6 11 10
16 10 6 0 7 -4 4 -10z m-40 -20 c-3 -5 -11 -10 -16 -10 -6 0 -7 5 -4 10 3 6
11 10 16 10 6 0 7 -4 4 -10z m-50 -28 c-6 -4 -42 -34 -82 -65 -80 -65 -140
-139 -195 -242 -40 -75 -52 -79 -15 -5 58 118 150 227 246 291 42 27 67 39 46
21z m1510 -472 c3 -5 1 -10 -4 -10 -6 0 -11 5 -11 10 0 6 2 10 4 10 3 0 8 -4
11 -10z m71 -36 c18 -14 18 -14 -6 -3 -31 14 -36 19 -24 19 6 0 19 -7 30 -16z
m54 -24 c8 -5 11 -10 5 -10 -5 0 -17 5 -25 10 -8 5 -10 10 -5 10 6 0 17 -5 25
-10z m-1328 -22 c-7 -7 -12 -8 -12 -2 0 6 3 14 7 17 3 4 9 5 12 2 2 -3 -1 -11
-7 -17z m1377 -2 c10 -12 8 -13 -8 -9 -12 3 -21 9 -21 14 0 14 16 11 29 -5z
m-1294 -224 c-6 -7 -35 18 -35 31 0 5 9 2 20 -8 11 -10 18 -20 15 -23z m65
-42 c8 -5 11 -10 5 -10 -5 0 -21 10 -35 21 -24 20 -5 13 30 -11z m70 -40 c19
-11 31 -19 25 -19 -5 0 -26 8 -45 19 -19 11 -30 19 -25 19 6 0 26 -8 45 -19z
m87 -36 c-3 -3 -12 -4 -19 -1 -8 3 -5 6 6 6 11 1 17 -2 13 -5z m68 -24 c13 -6
15 -9 5 -9 -8 0 -22 4 -30 9 -18 12 -2 12 25 0z m152 -46 c-3 -3 -12 -4 -19
-1 -8 3 -5 6 6 6 11 1 17 -2 13 -5z m72 -15 c48 -17 32 -20 -19 -4 -25 7 -38
14 -29 14 9 1 30 -4 48 -10z m74 -26 c-7 -2 -19 -2 -25 0 -7 3 -2 5 12 5 14 0
19 -2 13 -5z m50 -10 c-7 -2 -19 -2 -25 0 -7 3 -2 5 12 5 14 0 19 -2 13 -5z
m52 -13 c3 -5 -1 -10 -9 -10 -8 0 -18 5 -21 10 -3 6 1 10 9 10 8 0 18 -4 21
-10z m52 -16 c-3 -3 -12 -4 -19 -1 -8 3 -5 6 6 6 11 1 17 -2 13 -5z m78 -19
c39 -17 11 -18 -35 0 -23 9 -28 14 -15 14 11 0 34 -6 50 -14z m62 -21 c-3 -3
-12 -4 -19 -1 -8 3 -5 6 6 6 11 1 17 -2 13 -5z m120 -38 c95 -36 215 -94 248
-120 30 -23 10 -19 -33 7 -63 38 -204 102 -249 113 -32 9 -83 34 -66 34 6 0
51 -15 100 -34z m-1467 -977 c25 -19 68 -49 96 -65 50 -30 179 -84 201 -84 7
0 15 -5 19 -11 18 -31 -187 51 -272 107 -61 41 -164 139 -164 157 0 6 17 -8
38 -29 20 -22 57 -56 82 -75z m1367 -2 c-36 -60 -93 -111 -162 -145 -62 -31
-128 -53 -155 -51 -8 0 1 5 20 10 129 36 245 116 291 203 13 26 26 41 27 36 2
-6 -8 -29 -21 -53z m-938 -183 c9 -8 -55 -2 -74 6 -13 6 -5 7 25 3 25 -3 47
-7 49 -9z m54 -11 c-7 -2 -19 -2 -25 0 -7 3 -2 5 12 5 14 0 19 -2 13 -5z m312
-18 c55 0 132 3 170 7 62 6 65 5 30 -5 -53 -14 -408 -14 -460 1 -33 9 -23 10
60 4 55 -4 145 -7 200 -7z m-850 -464 c34 -7 35 -9 10 -9 -16 0 -43 4 -60 8
-42 11 -1 11 50 1z m182 -37 c-3 -3 -12 -4 -19 -1 -8 3 -5 6 6 6 11 1 17 -2
13 -5z m46 -11 c-7 -2 -19 -2 -25 0 -7 3 -2 5 12 5 14 0 19 -2 13 -5z m50 -10
c-7 -2 -19 -2 -25 0 -7 3 -2 5 12 5 14 0 19 -2 13 -5z m140 -20 c-7 -2 -19 -2
-25 0 -7 3 -2 5 12 5 14 0 19 -2 13 -5z m110 -10 c-7 -2 -19 -2 -25 0 -7 3 -2
5 12 5 14 0 19 -2 13 -5z"/>
</g>
</svg>
