<svg xmlns="http://www.w3.org/2000/svg" version="1.1" xmlns:xlink="http://www.w3.org/1999/xlink" xmlns:svgjs="http://svgjs.dev/svgjs" width="1440" height="560" preserveAspectRatio="none" viewBox="0 0 1440 560"><g mask="url(&quot;#SvgjsMask1003&quot;)" fill="none"><rect width="1440" height="560" x="0" y="0" fill="rgba(217, 219, 222, 1)"></rect><path d="M 0,49 C 57.6,111.2 172.8,365 288,360 C 403.2,355 460.8,27.2 576,24 C 691.2,20.8 748.8,317 864,344 C 979.2,371 1036.8,160.4 1152,159 C 1267.2,157.6 1382.4,301.4 1440,337L1440 560L0 560z" fill="rgba(188, 194, 201, 1)"></path><path d="M 0,172 C 96,213.6 288,364 480,380 C 672,396 768,248.2 960,252 C 1152,255.8 1344,369.6 1440,399L1440 560L0 560z" fill="rgba(137, 143, 149, 1)"></path></g><defs><mask id="SvgjsMask1003"><rect width="1440" height="560" fill="#ffffff"></rect></mask></defs></svg>